<?xml version="1.0" encoding="UTF-8"?>
<!DOCTYPE svg  PUBLIC '-//W3C//DTD SVG 1.1//EN'  'http://www.w3.org/Graphics/SVG/1.1/DTD/svg11.dtd'>
<svg enable-background="new 0 0 1000 1000" version="1.1" viewBox="0 0 1000 1000" xml:space="preserve" xmlns="http://www.w3.org/2000/svg">
    <metadata> Svg Vector Icons : http://www.onlinewebfonts.com/icon </metadata>
        <g transform="translate(0 511) scale(.1 -.1)">
            <path d="m3249 2949.8c-233.6-57.4-394.4-181.9-643.3-499.7l-151.3-193.4-141.7-34.5c-185.7-44-524.6-214.4-681.6-342.7-145.5-118.7-1012.8-1091.3-1146.9-1286.6-183.8-264.2-300.6-555.3-356.1-878.9-151.3-892.2 319.8-1824.7 1131.6-2240.1 354.2-180 582.1-231.7 1003.3-229.8 394.4 1.9 584 46 928.6 216.3 438.5 216.4 750.6 528.5 970.7 968.8 70.8 141.7 168.5 411.7 168.5 467.2 0 63.2 24.9 59.4 90-17.2 91.9-105.3 206.8-181.9 352.3-229.8 268-91.9 597.4-3.8 790.7 212.5 55.5 61.3 90 88.1 95.7 72.8 3.8-15.3 21.1-82.3 40.2-151.2 47.9-195.3 239.3-561 384.8-744.8 298.7-371.4 712.3-633.8 1189-752.5 141.7-36.4 220.2-42.1 494-42.1 289.1 1.9 346.5 7.7 517 51.7 260.4 70.8 608.9 245.1 809.9 405.9 785 633.8 1028.2 1707.9 587.8 2603.9-55.5 116.8-149.3 271.9-204.9 346.6-183.8 239.3-974.5 1118.2-1104.8 1225.4-158.9 134-486.3 298.7-677.8 344.6l-147.4 34.5-151.3 193.4c-84.2 105.3-195.3 233.6-247 281.5-277.6 260.4-679.7 317.8-1030.1 147.4-128.3-61.3-317.8-245.1-386.8-377.2-72.8-137.9-118.7-304.4-118.7-438.5 0-55.5 21-204.9 47.9-331.2l49.8-229.8-74.7-126.4-76.6-126.4-61.3 90c-204.9 296.8-656.7 344.6-911.4 93.8-40.2-40.2-91.9-99.6-113-128.3l-38.3-55.5-72.8 128.3-74.7 128.3 49.8 229.8c57.4 264.2 61.3 382.9 21.1 541.8-109.1 413.6-484.4 702.7-905.6 696.9-59.1 0.1-151-11.4-204.6-24.8zm-580.1-1905.1c620.3-160.8 1097.1-647.2 1254.1-1279 49.8-195.3 44-616.5-9.6-819.5-158.9-591.6-605-1045.4-1204.3-1229.2-151.3-46-197.2-51.7-465.3-51.7s-314 5.7-465.3 51.7c-599.3 183.8-1043.5 635.7-1204.3 1229.2-59.3 218.3-59.3 641.4 1.9 861.6 176.2 651 698.9 1139.2 1357.5 1263.7 195.3 36.4 540 24.9 735.3-26.8zm5514.2 0c620.3-160.8 1097.1-647.2 1254.1-1279 49.8-195.3 44-616.5-9.6-819.5-158.9-587.8-605-1045.4-1200.5-1227.3-155.1-47.9-201-53.6-469.1-53.6-268 0-314 5.7-465.3 51.7-599.3 183.8-1043.5 635.7-1204.3 1229.2-59.3 218.3-59.3 641.4 1.9 861.6 176.1 651 698.9 1139.2 1357.5 1263.7 195.3 36.4 540 24.9 735.3-26.8zm-2998.4-1254.1c296.8-137.9 365.7-501.6 137.9-733.3-134-137.9-363.8-178.1-526.5-95.7-90 47.9-193.4 166.6-225.9 260.4-61.3 181.9-24.9 331.3 114.9 472.9 143.5 145.5 319.6 180 499.6 95.7z" fill="#7166ed"/>
        </g>
</svg>